<?xml version="1.0" standalone="no"?><!DOCTYPE svg PUBLIC "-//W3C//DTD SVG 1.1//EN" "http://www.w3.org/Graphics/SVG/1.1/DTD/svg11.dtd"><svg class="icon" width="200px" height="177.01px" viewBox="0 0 1157 1024" version="1.1" xmlns="http://www.w3.org/2000/svg"><path d="M831.666087 934.066087a34.593391 34.593391 0 1 1 0 69.142261H325.89913a34.593391 34.593391 0 1 1 0-69.142261zM1039.760696 20.791652c59.481043 0 92.115478 33.346783 92.115478 89.177044v656.250434c0 56.097391-32.634435 89.221565-92.16 89.221566H117.804522c-59.525565 0-92.16-33.079652-92.16-89.132522V110.057739c0-56.008348 32.634435-89.266087 92.16-89.266087z m-519.168 205.245218a31.343304 31.343304 0 0 0-31.076174-7.568696 232.225391 232.225391 0 0 0-29.384348 14.914783 208.317217 208.317217 0 0 0-27.603478 18.031304 31.343304 31.343304 0 0 0-8.993392 30.586435l2.226087 7.123478c9.438609 39.624348-13.757217 79.693913-52.847304 91.269565l-7.479652 1.78087a31.47687 31.47687 0 0 0-22.038261 22.973217c-1.335652 10.863304-1.914435 21.860174-1.647304 32.857044-0.26713 10.952348 0.26713 21.949217 1.647304 32.857043 2.582261 11.130435 11.041391 19.990261 22.038261 23.151304l7.123478 1.691826a76.8 76.8 0 0 1 53.426087 91.002435l-2.092522 7.078957a31.565913 31.565913 0 0 0 8.993392 30.72c8.770783 6.678261 18.031304 12.644174 27.692521 17.897739 9.349565 5.698783 19.144348 10.685217 29.295305 14.914783a31.47687 31.47687 0 0 0 31.165217-7.123479l5.075478-5.431652a76.889043 76.889043 0 0 1 105.872696 0l5.12 5.431652c8.236522 8.013913 20.168348 10.907826 31.165217 7.568696 10.106435-4.318609 19.945739-9.260522 29.384348-14.914783 9.616696-5.298087 18.832696-11.308522 27.603478-17.986782a31.565913 31.565913 0 0 0 8.993392-30.72l-2.270609-7.123479a76.621913 76.621913 0 0 1 52.98087-91.269565l7.123478-1.691826a31.254261 31.254261 0 0 0 21.949217-23.195826c1.380174-10.774261 1.958957-21.593043 1.691826-32.456348a228.396522 228.396522 0 0 0-1.780869-32.946087 31.47687 31.47687 0 0 0-22.171826-23.017739l-7.702261-1.780869a76.399304 76.399304 0 0 1-52.580174-91.358609l2.404174-7.123478a31.744 31.744 0 0 0-8.94887-30.72 216.197565 216.197565 0 0 0-27.737043-17.853218 227.105391 227.105391 0 0 0-29.295305-14.914782 31.47687 31.47687 0 0 0-31.165217 7.524174l-5.342609 5.65426a76.710957 76.710957 0 0 1-105.605565-0.356174z m18.253913 121.677913a98.749217 98.749217 0 1 1 79.738434 180.75826 98.749217 98.749217 0 0 1-79.693913-180.75826z" fill="#1296db" /></svg>